<svg id="visual" viewBox="0 0 900 600" width="900" height="600" xmlns="http://www.w3.org/2000/svg" xmlns:xlink="http://www.w3.org/1999/xlink" version="1.1"><rect x="0" y="0" width="900" height="600" fill="#FFFDE1"></rect><defs><linearGradient id="grad1_0" x1="33.3%" y1="100%" x2="100%" y2="0%"><stop offset="20%" stop-color="#3bc1a8" stop-opacity="1"></stop><stop offset="80%" stop-color="#3bc1a8" stop-opacity="1"></stop></linearGradient></defs><defs><linearGradient id="grad1_1" x1="33.3%" y1="100%" x2="100%" y2="0%"><stop offset="20%" stop-color="#3bc1a8" stop-opacity="1"></stop><stop offset="80%" stop-color="#83d0a8" stop-opacity="1"></stop></linearGradient></defs><defs><linearGradient id="grad1_2" x1="33.3%" y1="100%" x2="100%" y2="0%"><stop offset="20%" stop-color="#b5dfb2" stop-opacity="1"></stop><stop offset="80%" stop-color="#83d0a8" stop-opacity="1"></stop></linearGradient></defs><defs><linearGradient id="grad1_3" x1="33.3%" y1="100%" x2="100%" y2="0%"><stop offset="20%" stop-color="#b5dfb2" stop-opacity="1"></stop><stop offset="80%" stop-color="#deedc6" stop-opacity="1"></stop></linearGradient></defs><defs><linearGradient id="grad1_4" x1="33.3%" y1="100%" x2="100%" y2="0%"><stop offset="20%" stop-color="#fffde1" stop-opacity="1"></stop><stop offset="80%" stop-color="#deedc6" stop-opacity="1"></stop></linearGradient></defs><defs><linearGradient id="grad2_0" x1="0%" y1="100%" x2="66.7%" y2="0%"><stop offset="20%" stop-color="#3bc1a8" stop-opacity="1"></stop><stop offset="80%" stop-color="#3bc1a8" stop-opacity="1"></stop></linearGradient></defs><defs><linearGradient id="grad2_1" x1="0%" y1="100%" x2="66.7%" y2="0%"><stop offset="20%" stop-color="#83d0a8" stop-opacity="1"></stop><stop offset="80%" stop-color="#3bc1a8" stop-opacity="1"></stop></linearGradient></defs><defs><linearGradient id="grad2_2" x1="0%" y1="100%" x2="66.7%" y2="0%"><stop offset="20%" stop-color="#83d0a8" stop-opacity="1"></stop><stop offset="80%" stop-color="#b5dfb2" stop-opacity="1"></stop></linearGradient></defs><defs><linearGradient id="grad2_3" x1="0%" y1="100%" x2="66.7%" y2="0%"><stop offset="20%" stop-color="#deedc6" stop-opacity="1"></stop><stop offset="80%" stop-color="#b5dfb2" stop-opacity="1"></stop></linearGradient></defs><defs><linearGradient id="grad2_4" x1="0%" y1="100%" x2="66.7%" y2="0%"><stop offset="20%" stop-color="#deedc6" stop-opacity="1"></stop><stop offset="80%" stop-color="#fffde1" stop-opacity="1"></stop></linearGradient></defs><g transform="translate(900, 600)"><path d="M-486.7 0C-436 -48.7 -385.2 -97.3 -359.4 -148.9C-333.6 -200.4 -332.7 -254.8 -309.7 -309.7C-286.7 -364.6 -241.6 -420.1 -186.3 -449.7C-131 -479.3 -65.5 -483 0 -486.7L0 0Z" fill="#f0f5d2"></path><path d="M-389.4 0C-348.8 -38.9 -308.2 -77.9 -287.5 -119.1C-266.9 -160.3 -266.2 -203.8 -247.8 -247.8C-229.4 -291.7 -193.3 -336.1 -149 -359.8C-104.8 -383.4 -52.4 -386.4 0 -389.4L0 0Z" fill="#cbe6bb"></path><path d="M-292 0C-261.6 -29.2 -231.1 -58.4 -215.6 -89.3C-200.1 -120.2 -199.6 -152.9 -185.8 -185.8C-172 -218.8 -144.9 -252.1 -111.8 -269.8C-78.6 -287.6 -39.3 -289.8 0 -292L0 0Z" fill="#9dd7ac"></path><path d="M-194.7 0C-174.4 -19.5 -154.1 -38.9 -143.8 -59.5C-133.4 -80.2 -133.1 -101.9 -123.9 -123.9C-114.7 -145.9 -96.6 -168 -74.5 -179.9C-52.4 -191.7 -26.2 -193.2 0 -194.7L0 0Z" fill="#64c9a7"></path><path d="M-97.3 0C-87.2 -9.7 -77 -19.5 -71.9 -29.8C-66.7 -40.1 -66.5 -51 -61.9 -61.9C-57.3 -72.9 -48.3 -84 -37.3 -89.9C-26.2 -95.9 -13.1 -96.6 0 -97.3L0 0Z" fill="#3bc1a8"></path></g><g transform="translate(0, 0)"><path d="M486.7 0C492.3 76.4 497.8 152.9 449.7 186.3C401.6 219.7 299.7 210.1 253.1 253.1C206.5 296.2 215.1 392 182.2 439.8C149.2 487.5 74.6 487.1 0 486.7L0 0Z" fill="#f0f5d2"></path><path d="M389.4 0C393.8 61.1 398.3 122.3 359.8 149C321.2 175.7 239.8 168 202.5 202.5C165.2 237 172.1 313.6 145.7 351.8C119.3 390 59.7 389.7 0 389.4L0 0Z" fill="#cbe6bb"></path><path d="M292 0C295.4 45.9 298.7 91.7 269.8 111.8C240.9 131.8 179.8 126 151.9 151.9C123.9 177.7 129.1 235.2 109.3 263.9C89.5 292.5 44.8 292.3 0 292L0 0Z" fill="#9dd7ac"></path><path d="M194.7 0C196.9 30.6 199.1 61.1 179.9 74.5C160.6 87.9 119.9 84 101.3 101.3C82.6 118.5 86.1 156.8 72.9 175.9C59.7 195 29.8 194.8 0 194.7L0 0Z" fill="#64c9a7"></path><path d="M97.3 0C98.5 15.3 99.6 30.6 89.9 37.3C80.3 43.9 59.9 42 50.6 50.6C41.3 59.2 43 78.4 36.4 88C29.8 97.5 14.9 97.4 0 97.3L0 0Z" fill="#3bc1a8"></path></g></svg>